<?xml version="1.0" encoding="iso-8859-1"?>
<!-- Generator: Adobe Illustrator 23.0.3, SVG Export Plug-In . SVG Version: 6.00 Build 0)  -->
<svg version="1.1" id="Layer_2" xmlns="http://www.w3.org/2000/svg" xmlns:xlink="http://www.w3.org/1999/xlink" x="0px" y="0px"
	 viewBox="0 0 100 100" style="enable-background:new 0 0 100 100;" xml:space="preserve">
<path style="fill:#FFFFFF;" d="M16,50c0,18.778,15.222,34,34,34c6.112,0,11.843-1.621,16.8-4.445l15.933,4.407
	c0.749,0.208,1.437-0.481,1.23-1.23l-4.407-15.933C82.379,61.843,84,56.112,84,50c0-18.778-15.222-34-34-34S16,31.222,16,50z"/>
<path style="fill:#60BE92;" d="M22,50c0,15.464,12.536,28,28,28c6.121,0,11.779-1.97,16.387-5.303l8.723,2.413l-2.413-8.722
	C76.03,61.78,78,56.122,78,50c0-15.464-12.536-28-28-28S22,34.536,22,50z"/>
<path style="fill:#1F212B;" d="M83.01,85.001c-0.181,0-0.364-0.025-0.545-0.075L66.93,80.628C61.764,83.489,55.919,85,50,85
	c-19.299,0-35-15.701-35-35s15.701-35,35-35s35,15.701,35,35c0,5.92-1.51,11.764-4.37,16.93l4.297,15.536
	c0.194,0.704,0.002,1.433-0.514,1.948C84.029,84.797,83.53,85,83.01,85.001z M50,17c-18.196,0-33,14.804-33,33s14.804,33,33,33
	c5.713,0,11.352-1.492,16.305-4.314c0.232-0.132,0.506-0.165,0.762-0.095L83,82.998l-4.408-15.933
	c-0.071-0.257-0.037-0.53,0.095-0.762C81.508,61.351,83,55.713,83,50C83,31.804,68.196,17,50,17z"/>
<path style="fill:#1F212B;" d="M50,78C34.56,78,22,65.439,22,50c0-7.447,2.893-14.458,8.146-19.74
	c0.195-0.196,0.511-0.195,0.707-0.002c0.196,0.194,0.197,0.512,0.002,0.707C25.789,36.059,23,42.818,23,50c0,14.888,12.112,27,27,27
	c5.571,0,10.923-1.688,15.479-4.883c0.123-0.086,0.276-0.113,0.42-0.072l8.494,2.349l-2.35-8.493
	c-0.04-0.145-0.013-0.299,0.073-0.421C75.311,60.923,77,55.57,77,50c0-14.888-12.112-27-27-27c-2.482,0-4.959,0.345-7.364,1.025
	c-0.262,0.073-0.542-0.079-0.617-0.346c-0.075-0.266,0.079-0.542,0.345-0.617C44.856,22.357,47.425,22,50,22
	c15.439,0,28,12.561,28,28c0,5.698-1.704,11.176-4.93,15.859l2.522,9.117c0.048,0.174-0.001,0.36-0.128,0.487
	c-0.128,0.127-0.315,0.177-0.487,0.128l-9.118-2.521C61.176,76.297,55.698,78,50,78z M32.5,29.286c-0.144,0-0.287-0.062-0.386-0.182
	c-0.176-0.213-0.146-0.528,0.067-0.704c0.638-0.526,1.323-1.041,2.036-1.528c0.229-0.154,0.54-0.097,0.695,0.131
	c0.156,0.229,0.097,0.539-0.131,0.695c-0.689,0.471-1.35,0.966-1.964,1.474C32.725,29.249,32.612,29.286,32.5,29.286z M36.5,26.544
	c-0.175,0-0.344-0.092-0.436-0.255c-0.136-0.24-0.051-0.545,0.19-0.681c1.001-0.564,2.028-1.065,3.054-1.49
	c0.255-0.107,0.548,0.016,0.653,0.271c0.105,0.256-0.016,0.548-0.271,0.653c-0.989,0.409-1.98,0.893-2.946,1.438
	C36.667,26.523,36.583,26.544,36.5,26.544z"/>
<ellipse transform="matrix(0.9726 -0.2323 0.2323 0.9726 -8.9009 10.1968)" style="fill:#FFFFFF;" cx="38.843" cy="42.889" rx="6.171" ry="10.579"/>
<path style="fill:#1F212B;" d="M40.433,53.78c-1.494,0-3.045-0.777-4.458-2.256c-1.658-1.735-2.944-4.252-3.621-7.085
	c-1.419-5.941,0.337-11.472,3.915-12.326c1.784-0.424,3.716,0.334,5.442,2.141c1.658,1.736,2.944,4.253,3.621,7.086l0,0
	c0.677,2.833,0.667,5.659-0.028,7.957c-0.723,2.392-2.104,3.942-3.887,4.368C41.093,53.742,40.764,53.78,40.433,53.78z
	 M37.248,32.999c-0.253,0-0.502,0.028-0.747,0.087c-3.042,0.727-4.465,5.716-3.174,11.121c0.636,2.664,1.833,5.017,3.371,6.627
	c1.47,1.538,3.064,2.2,4.486,1.858c1.423-0.34,2.546-1.648,3.162-3.686c0.644-2.131,0.648-4.771,0.012-7.435l0,0
	c-0.636-2.664-1.833-5.018-3.371-6.627C39.77,33.671,38.468,32.999,37.248,32.999z"/>
<path style="fill:#1F212B;" d="M45.11,46.398c-0.301-1.262-0.925-2.373-1.757-3.129c-0.884-0.803-1.901-1.12-2.86-0.891
	c-0.96,0.229-1.724,0.97-2.149,2.087c-0.4,1.051-0.455,2.324-0.153,3.586c0.572,2.394,2.294,4.091,4.019,4.091
	c0.2,0,0.401-0.023,0.599-0.07C44.716,51.616,45.749,49.071,45.11,46.398z"/>
<ellipse transform="matrix(0.988 -0.1545 0.1545 0.988 -5.7896 9.3058)" style="fill:#FFFFFF;" cx="56.994" cy="41.913" rx="6.171" ry="10.579"/>
<path style="fill:#1F212B;" d="M58.054,52.91c-1.602,0-3.215-0.91-4.604-2.617c-1.515-1.861-2.597-4.472-3.047-7.35
	c-0.45-2.878-0.216-5.694,0.659-7.93c0.91-2.326,2.41-3.764,4.221-4.047c1.813-0.285,3.678,0.628,5.255,2.566
	c1.515,1.861,2.597,4.472,3.047,7.35c0.45,2.878,0.216,5.694-0.659,7.93c-0.91,2.326-2.41,3.764-4.221,4.047
	C58.489,52.894,58.271,52.91,58.054,52.91z M55.929,31.917c-0.165,0-0.329,0.013-0.492,0.038c-1.446,0.226-2.669,1.441-3.444,3.424
	c-0.812,2.072-1.025,4.704-0.602,7.41c0.423,2.706,1.43,5.146,2.835,6.873c1.343,1.65,2.875,2.435,4.325,2.209
	c1.446-0.226,2.669-1.441,3.444-3.424c0.812-2.072,1.025-4.704,0.602-7.41c-0.423-2.706-1.43-5.146-2.835-6.873
	C58.57,32.699,57.227,31.917,55.929,31.917z"/>
<path style="fill:#1F212B;" d="M62.901,45.656c-0.425-2.715-2.348-4.674-4.285-4.374c-0.975,0.152-1.795,0.831-2.308,1.911
	c-0.482,1.015-0.638,2.28-0.438,3.562s0.734,2.438,1.504,3.259c0.703,0.749,1.532,1.147,2.37,1.147c0.137,0,0.274-0.011,0.411-0.032
	c0.975-0.152,1.795-0.831,2.308-1.911C62.946,48.203,63.101,46.938,62.901,45.656z"/>
<path style="fill:#FFFFFF;" d="M36.465,59.638l0.319,5.109c0.018,0.285,0.182,0.541,0.434,0.675l9.555,5.087
	c2.584,1.376,5.719,1.19,8.123-0.48l9.438-6.558c0.235-0.163,0.368-0.437,0.352-0.722l-0.307-5.412
	c-0.033-0.581-0.643-0.945-1.17-0.698l-9.407,4.414c-1.956,0.918-4.175,1.105-6.257,0.527l-10.04-2.787
	C36.96,58.643,36.429,59.074,36.465,59.638z"/>
<path style="fill:#1F212B;" d="M50.445,71.931c-1.335,0-2.676-0.324-3.907-0.979l-9.555-5.087c-0.409-0.219-0.669-0.624-0.699-1.086
	l-0.319-5.109l0,0c-0.026-0.427,0.156-0.841,0.488-1.11c0.331-0.269,0.775-0.361,1.185-0.246l10.04,2.787
	c1.967,0.544,4.065,0.368,5.911-0.499l9.407-4.414c0.397-0.188,0.86-0.164,1.238,0.061c0.377,0.226,0.618,0.622,0.643,1.062
	l0.307,5.412c0.026,0.464-0.185,0.897-0.565,1.162l-9.438,6.557C53.757,71.43,52.105,71.931,50.445,71.931z M36.964,59.606
	l0.319,5.109c0.007,0.113,0.071,0.213,0.171,0.267l9.554,5.086c2.429,1.295,5.342,1.121,7.604-0.449l9.438-6.558
	c0.092-0.064,0.144-0.171,0.138-0.284l-0.307-5.412c-0.009-0.154-0.113-0.232-0.157-0.259c-0.044-0.027-0.163-0.083-0.301-0.015
	l-9.407,4.414c-2.062,0.969-4.407,1.167-6.604,0.557l-10.04-2.787c-0.142-0.037-0.25,0.029-0.288,0.061
	C37.044,59.367,36.955,59.457,36.964,59.606L36.964,59.606z"/>
</svg>